<svg width="179"  height="57" viewBox="0 0 179 57" fill="none" xmlns="http://www.w3.org/2000/svg" >
<rect width="179" height="57" rx="10" fill="#D8D8D8"/>
<mask id="mask0" mask-type="alpha" maskUnits="userSpaceOnUse" x="0" y="0" width="179" height="57">
<rect width="179" height="57" rx="10" fill="white"/>
</mask>
<g mask="url(#mask0)">
<rect width="179" height="57" fill="#020725"  />
<path d="M61.597 12.3H58.902V20H61.597C63.83 20 65.535 18.372 65.535 16.15C65.535 13.917 63.841 12.3 61.597 12.3ZM61.608 18.812H60.145V13.488H61.608C63.159 13.488 64.292 14.588 64.292 16.15C64.292 17.723 63.159 18.812 61.608 18.812ZM67.3664 11.222C66.9154 11.222 66.5634 11.541 66.5634 11.981C66.5634 12.432 66.9154 12.762 67.3664 12.762C67.8394 12.762 68.1804 12.432 68.1804 11.981C68.1804 11.541 67.8394 11.222 67.3664 11.222ZM66.7504 20H67.9934V13.95H66.7504V20ZM72.109 20.132C73.539 20.132 74.705 19.494 74.705 18.196C74.705 17.019 73.759 16.733 72.12 16.348C71.064 16.095 70.69 15.996 70.69 15.611C70.69 15.193 71.163 14.918 71.966 14.918C72.736 14.918 73.198 15.16 73.374 15.655H74.628C74.408 14.555 73.539 13.818 71.988 13.818C70.47 13.818 69.436 14.522 69.436 15.743C69.436 16.755 70.151 17.096 71.845 17.514C72.857 17.756 73.429 17.833 73.429 18.339C73.429 18.79 72.934 19.032 72.131 19.032C71.086 19.032 70.591 18.724 70.404 18.053H69.139C69.37 19.362 70.514 20.132 72.109 20.132ZM79.2808 13.818C78.3238 13.818 77.5978 14.291 77.1578 14.984V13.95H75.9148V22.75H77.1578V18.988C77.5978 19.67 78.3238 20.132 79.2698 20.132C80.8868 20.132 82.0638 18.823 82.0638 16.975C82.0638 15.127 80.8648 13.818 79.2808 13.818ZM79.0058 18.944C77.9498 18.944 77.1468 18.141 77.1468 16.975C77.1468 15.82 77.9498 15.006 79.0058 15.006C80.0618 15.006 80.8098 15.82 80.8098 16.975C80.8098 18.141 80.0508 18.944 79.0058 18.944ZM86.2519 13.818C84.5249 13.818 83.1169 15.149 83.1169 16.975C83.1169 18.779 84.5029 20.132 86.2519 20.132C88.0119 20.132 89.3869 18.79 89.3869 16.975C89.3869 15.149 87.9899 13.818 86.2519 13.818ZM86.2519 15.006C87.2969 15.006 88.1329 15.809 88.1329 16.975C88.1329 18.141 87.3079 18.944 86.2519 18.944C85.1959 18.944 84.3709 18.141 84.3709 16.975C84.3709 15.809 85.2069 15.006 86.2519 15.006ZM93.8973 13.818C92.9513 13.818 92.3023 14.247 91.8733 14.951V13.95H90.6303V20H91.8733V16.865C91.8733 15.699 92.4453 15.006 93.5123 15.006C94.4253 15.006 94.8323 15.501 94.8323 16.436V20H96.0753V16.183C96.0753 14.709 95.2613 13.818 93.8973 13.818ZM98.0891 11.222C97.6381 11.222 97.2861 11.541 97.2861 11.981C97.2861 12.432 97.6381 12.762 98.0891 12.762C98.5621 12.762 98.9031 12.432 98.9031 11.981C98.9031 11.541 98.5621 11.222 98.0891 11.222ZM97.4731 20H98.7161V13.95H97.4731V20ZM103.525 13.818C102.568 13.818 101.842 14.291 101.402 14.984V11.53H100.159V20H101.402V18.988C101.842 19.67 102.568 20.132 103.514 20.132C105.131 20.132 106.308 18.823 106.308 16.975C106.308 15.127 105.109 13.818 103.525 13.818ZM103.25 18.944C102.194 18.944 101.391 18.141 101.391 16.975C101.391 15.82 102.194 15.006 103.25 15.006C104.306 15.006 105.054 15.82 105.054 16.975C105.054 18.141 104.295 18.944 103.25 18.944ZM107.571 20H108.825V11.53H107.571V20ZM113.172 13.818C111.346 13.818 110.048 15.16 110.048 16.986C110.048 18.812 111.357 20.132 113.194 20.132C114.481 20.132 115.636 19.494 116.109 18.141H114.822C114.536 18.735 113.931 19.043 113.205 19.043C112.193 19.043 111.412 18.427 111.313 17.316H116.23C116.351 15.325 115.119 13.818 113.172 13.818ZM113.172 14.896C114.085 14.896 114.712 15.479 114.899 16.304H111.379C111.588 15.49 112.226 14.896 113.172 14.896ZM123.667 13.818C121.841 13.818 120.543 15.16 120.543 16.986C120.543 18.812 121.852 20.132 123.689 20.132C124.976 20.132 126.131 19.494 126.604 18.141H125.317C125.031 18.735 124.426 19.043 123.7 19.043C122.688 19.043 121.907 18.427 121.808 17.316H126.725C126.846 15.325 125.614 13.818 123.667 13.818ZM123.667 14.896C124.58 14.896 125.207 15.479 125.394 16.304H121.874C122.083 15.49 122.721 14.896 123.667 14.896ZM131.205 13.818C130.259 13.818 129.61 14.247 129.181 14.951V13.95H127.938V20H129.181V16.865C129.181 15.699 129.753 15.006 130.82 15.006C131.733 15.006 132.14 15.501 132.14 16.436V20H133.383V16.183C133.383 14.709 132.569 13.818 131.205 13.818Z" fill="white"/>
</g>
<path fill-rule="evenodd" clip-rule="evenodd" d="M112.806 41.3987C113.773 40.51 114.255 39.3587 114.255 37.9437C114.255 36.7937 113.925 35.83 113.264 35.06C112.601 34.2875 111.57 33.6137 110.166 33.0375C109.019 32.5762 108.228 32.1487 107.793 31.7537C107.292 31.3262 107.044 30.7825 107.044 30.125C107.044 29.5312 107.262 29.03 107.697 28.6187C108.212 28.1587 108.93 27.9275 109.85 27.9275C111.013 27.9275 112.053 28.1825 112.973 28.6925L113.626 26.52C112.642 25.9937 111.408 25.73 109.923 25.73C108.259 25.73 106.927 26.1662 105.929 27.04C104.927 27.9125 104.427 29.0337 104.427 30.4012C104.427 32.4937 105.854 34.085 108.711 35.1712C109.76 35.5675 110.512 35.9962 110.962 36.4575C111.414 36.9187 111.64 37.4875 111.64 38.1625C111.64 38.92 111.366 39.5275 110.818 39.98C110.268 40.4325 109.502 40.66 108.517 40.66C107.145 40.66 105.886 40.305 104.739 39.5975L104.133 41.8187C105.198 42.51 106.606 42.855 108.361 42.855C110.263 42.855 111.743 42.37 112.806 41.3987ZM72.087 42.6087H69.3027L67.7775 37.7225H62.4762L61.0233 42.6087H58.3126L63.5649 25.9737H66.809L72.087 42.6087ZM67.3178 35.6725L65.9385 31.3287C65.7926 30.885 65.5192 29.84 65.1158 28.195H65.0668C64.9062 28.9025 64.6475 29.9475 64.2919 31.3287L62.9372 35.6725H67.3178ZM83.9721 41.3C85.0535 40.1162 85.5942 38.5037 85.5942 36.4637C85.5942 34.6375 85.1307 33.165 84.2014 32.045C83.2745 30.9262 82.1159 30.3675 80.728 30.3675C78.9528 30.3675 77.6299 31.0825 76.7582 32.515H76.7091L76.5632 30.6137H74.2644C74.3282 31.9637 74.3613 33.28 74.3613 34.5625V47.4962H76.9752V41.1775H77.0242C77.7022 42.3125 78.8154 42.88 80.3651 42.88C81.8008 42.88 83.0036 42.3537 83.9721 41.3ZM82.9312 36.5612C82.9312 35.3937 82.6738 34.4312 82.1564 33.6737C81.5912 32.8837 80.8323 32.4887 79.8809 32.4887C79.236 32.4887 78.6499 32.7087 78.1264 33.1425C77.6017 33.58 77.2584 34.1512 77.0978 34.8587C77.0169 35.1887 76.9764 35.4587 76.9764 35.6712V37.6712C76.9764 38.5437 77.2388 39.28 77.7635 39.8812C78.2882 40.4825 78.9699 40.7825 79.8085 40.7825C80.793 40.7825 81.5593 40.395 82.1073 39.6225C82.6566 38.8487 82.9312 37.8287 82.9312 36.5612ZM97.5026 41.3C98.5851 40.1162 99.1258 38.5037 99.1258 36.4637C99.1258 34.6375 98.6612 33.165 97.7355 32.045C96.8062 30.9262 95.6476 30.3675 94.2609 30.3675C92.4844 30.3675 91.1615 31.0825 90.2911 32.515H90.242L90.0961 30.6137H87.7973C87.8611 31.9637 87.8942 33.28 87.8942 34.5625V47.4962H90.5081V41.1775H90.5571C91.2339 42.3125 92.3471 42.88 93.8968 42.88C95.3325 42.88 96.5352 42.3537 97.5026 41.3ZM96.4629 36.5612C96.4629 35.3937 96.2042 34.4312 95.6868 33.6737C95.1216 32.8837 94.3652 32.4887 93.4125 32.4887C92.7664 32.4887 92.1816 32.7087 91.6569 33.1425C91.1321 33.58 90.7901 34.1512 90.6294 34.8587C90.5498 35.1887 90.5081 35.4587 90.5081 35.6712V37.6712C90.5081 38.5437 90.7704 39.28 91.2927 39.8812C91.8175 40.4812 92.4991 40.7825 93.3402 40.7825C94.3247 40.7825 95.091 40.395 95.639 39.6225C96.1883 38.8487 96.4629 37.8287 96.4629 36.5612ZM122.897 32.6137H120.016V38.4375C120.016 39.9187 120.524 40.6587 121.541 40.6587C122.008 40.6587 122.396 40.6175 122.702 40.535L122.775 42.5587C122.26 42.755 121.582 42.8537 120.742 42.8537C119.71 42.8537 118.903 42.5325 118.321 41.8912C117.741 41.2487 117.449 40.1712 117.449 38.6575V32.6112H115.732V30.6112H117.449V28.415L120.016 27.625V30.6112H122.897V32.6137ZM134.347 41.0537C135.379 39.87 135.897 38.3562 135.897 36.5125C135.897 34.7187 135.397 33.255 134.394 32.1212C133.345 30.9525 131.956 30.3687 130.23 30.3687C128.439 30.3687 127.014 30.9612 125.959 32.1462C124.901 33.33 124.373 34.8525 124.373 36.7112C124.373 38.4875 124.886 39.9612 125.911 41.1287C126.936 42.2962 128.31 42.88 130.036 42.88C131.828 42.88 133.265 42.2725 134.347 41.0537ZM133.185 36.5987C133.185 35.4925 132.953 34.5437 132.484 33.7525C131.936 32.795 131.152 32.3175 130.137 32.3175C129.086 32.3175 128.288 32.7962 127.74 33.7525C127.271 34.545 127.039 35.5087 127.039 36.6487C127.039 37.755 127.271 38.7037 127.74 39.4937C128.305 40.4512 129.095 40.9287 130.114 40.9287C131.112 40.9287 131.895 40.4412 132.46 39.4687C132.942 38.6625 133.185 37.7037 133.185 36.5987ZM143.569 32.8837C143.859 32.8837 144.135 32.9087 144.393 32.9575V30.4162C144.2 30.385 143.981 30.3675 143.74 30.3675C143.062 30.3675 142.433 30.5812 141.85 31.01C141.255 31.4862 140.819 32.1212 140.543 32.91H140.471L140.376 30.615H138.099C138.164 31.75 138.197 33.0087 138.197 34.3912L138.172 42.6087H140.785V36.315C140.785 35.3612 141.003 34.5712 141.438 33.9462C141.939 33.2375 142.65 32.8837 143.569 32.8837ZM156.083 36.0437C156.083 36.5212 156.053 36.9237 155.988 37.2525H148.146C148.177 38.4375 148.556 39.3437 149.284 39.9687C149.945 40.5275 150.799 40.8075 151.849 40.8075C153.01 40.8075 154.069 40.6187 155.022 40.24L155.431 42.09C154.318 42.585 153.004 42.8312 151.487 42.8312C149.663 42.8312 148.231 42.2837 147.189 41.19C146.149 40.0962 145.628 38.6275 145.628 36.785C145.628 34.9762 146.112 33.47 147.082 32.2687C148.097 30.9862 149.469 30.345 151.195 30.345C152.891 30.345 154.174 30.9862 155.046 32.2687C155.736 33.2875 156.083 34.5475 156.083 36.0437ZM153.083 33.3037C153.438 33.88 153.608 34.5625 153.591 35.3525V35.3512H148.146C148.226 34.5462 148.484 33.855 148.92 33.2787C149.451 32.5537 150.146 32.1925 151 32.1925C151.936 32.1925 152.631 32.5625 153.083 33.3037Z" fill="white"/>
<path d="M43.2545 27.9588C43.219 23.93 46.49 21.97 46.6396 21.8788C44.7871 19.125 41.9157 18.7488 40.9067 18.7188C38.4951 18.46 36.1558 20.19 34.9273 20.19C33.6743 20.19 31.7826 18.7438 29.7437 18.7863C27.12 18.8275 24.6655 20.3763 23.3193 22.7813C20.5411 27.685 22.6131 34.8913 25.2748 38.855C26.6063 40.7963 28.1621 42.9638 30.1986 42.8875C32.1909 42.8038 32.9351 41.5925 35.3393 41.5925C37.7215 41.5925 38.4203 42.8875 40.4972 42.8388C42.6354 42.8038 43.9816 40.8888 45.2664 38.93C46.8051 36.705 47.423 34.5138 47.4475 34.4013C47.3973 34.3838 43.295 32.7875 43.2545 27.9588Z" fill="white"/>
<path d="M39.3312 16.1113C40.4028 14.745 41.136 12.8863 40.9324 11C39.3815 11.07 37.4419 12.0938 36.325 13.43C35.3369 14.6075 34.4541 16.5375 34.6822 18.3525C36.4243 18.485 38.2131 17.4563 39.3312 16.1113Z" fill="white"/>
</svg>
