<svg width="180" height="57" viewBox="0 0 180 57" fill="none" xmlns="http://www.w3.org/2000/svg">
<rect width="180" height="57" rx="10" fill="#D8D8D8"/>
<mask id="mask0" mask-type="alpha" maskUnits="userSpaceOnUse" x="0" y="0" width="180" height="57">
<rect width="180" height="57" rx="10" fill="white"/>
</mask>
<g mask="url(#mask0)">
<rect width="180" height="57" rx="10" fill="#020725"/>
<path d="M61.597 12.3H58.902V20H61.597C63.83 20 65.535 18.372 65.535 16.15C65.535 13.917 63.841 12.3 61.597 12.3ZM61.608 18.812H60.145V13.488H61.608C63.159 13.488 64.292 14.588 64.292 16.15C64.292 17.723 63.159 18.812 61.608 18.812ZM67.3664 11.222C66.9154 11.222 66.5634 11.541 66.5634 11.981C66.5634 12.432 66.9154 12.762 67.3664 12.762C67.8394 12.762 68.1804 12.432 68.1804 11.981C68.1804 11.541 67.8394 11.222 67.3664 11.222ZM66.7504 20H67.9934V13.95H66.7504V20ZM72.109 20.132C73.539 20.132 74.705 19.494 74.705 18.196C74.705 17.019 73.759 16.733 72.12 16.348C71.064 16.095 70.69 15.996 70.69 15.611C70.69 15.193 71.163 14.918 71.966 14.918C72.736 14.918 73.198 15.16 73.374 15.655H74.628C74.408 14.555 73.539 13.818 71.988 13.818C70.47 13.818 69.436 14.522 69.436 15.743C69.436 16.755 70.151 17.096 71.845 17.514C72.857 17.756 73.429 17.833 73.429 18.339C73.429 18.79 72.934 19.032 72.131 19.032C71.086 19.032 70.591 18.724 70.404 18.053H69.139C69.37 19.362 70.514 20.132 72.109 20.132ZM79.2808 13.818C78.3238 13.818 77.5978 14.291 77.1578 14.984V13.95H75.9148V22.75H77.1578V18.988C77.5978 19.67 78.3238 20.132 79.2698 20.132C80.8868 20.132 82.0638 18.823 82.0638 16.975C82.0638 15.127 80.8648 13.818 79.2808 13.818ZM79.0058 18.944C77.9498 18.944 77.1468 18.141 77.1468 16.975C77.1468 15.82 77.9498 15.006 79.0058 15.006C80.0618 15.006 80.8098 15.82 80.8098 16.975C80.8098 18.141 80.0508 18.944 79.0058 18.944ZM86.2519 13.818C84.5249 13.818 83.1169 15.149 83.1169 16.975C83.1169 18.779 84.5029 20.132 86.2519 20.132C88.0119 20.132 89.3869 18.79 89.3869 16.975C89.3869 15.149 87.9899 13.818 86.2519 13.818ZM86.2519 15.006C87.2969 15.006 88.1329 15.809 88.1329 16.975C88.1329 18.141 87.3079 18.944 86.2519 18.944C85.1959 18.944 84.3709 18.141 84.3709 16.975C84.3709 15.809 85.2069 15.006 86.2519 15.006ZM93.8973 13.818C92.9513 13.818 92.3023 14.247 91.8733 14.951V13.95H90.6303V20H91.8733V16.865C91.8733 15.699 92.4453 15.006 93.5123 15.006C94.4253 15.006 94.8323 15.501 94.8323 16.436V20H96.0753V16.183C96.0753 14.709 95.2613 13.818 93.8973 13.818ZM98.0891 11.222C97.6381 11.222 97.2861 11.541 97.2861 11.981C97.2861 12.432 97.6381 12.762 98.0891 12.762C98.5621 12.762 98.9031 12.432 98.9031 11.981C98.9031 11.541 98.5621 11.222 98.0891 11.222ZM97.4731 20H98.7161V13.95H97.4731V20ZM103.525 13.818C102.568 13.818 101.842 14.291 101.402 14.984V11.53H100.159V20H101.402V18.988C101.842 19.67 102.568 20.132 103.514 20.132C105.131 20.132 106.308 18.823 106.308 16.975C106.308 15.127 105.109 13.818 103.525 13.818ZM103.25 18.944C102.194 18.944 101.391 18.141 101.391 16.975C101.391 15.82 102.194 15.006 103.25 15.006C104.306 15.006 105.054 15.82 105.054 16.975C105.054 18.141 104.295 18.944 103.25 18.944ZM107.571 20H108.825V11.53H107.571V20ZM113.172 13.818C111.346 13.818 110.048 15.16 110.048 16.986C110.048 18.812 111.357 20.132 113.194 20.132C114.481 20.132 115.636 19.494 116.109 18.141H114.822C114.536 18.735 113.931 19.043 113.205 19.043C112.193 19.043 111.412 18.427 111.313 17.316H116.23C116.351 15.325 115.119 13.818 113.172 13.818ZM113.172 14.896C114.085 14.896 114.712 15.479 114.899 16.304H111.379C111.588 15.49 112.226 14.896 113.172 14.896ZM123.667 13.818C121.841 13.818 120.543 15.16 120.543 16.986C120.543 18.812 121.852 20.132 123.689 20.132C124.976 20.132 126.131 19.494 126.604 18.141H125.317C125.031 18.735 124.426 19.043 123.7 19.043C122.688 19.043 121.907 18.427 121.808 17.316H126.725C126.846 15.325 125.614 13.818 123.667 13.818ZM123.667 14.896C124.58 14.896 125.207 15.479 125.394 16.304H121.874C122.083 15.49 122.721 14.896 123.667 14.896ZM131.205 13.818C130.259 13.818 129.61 14.247 129.181 14.951V13.95H127.938V20H129.181V16.865C129.181 15.699 129.753 15.006 130.82 15.006C131.733 15.006 132.14 15.501 132.14 16.436V20H133.383V16.183C133.383 14.709 132.569 13.818 131.205 13.818Z" fill="white"/>
</g>
<g clip-path="url(#clip0)">
<path d="M38.85 26.711L25.95 39.2863C25.3333 38.7177 25 37.9378 25 37.093V17.3689C25 16.5078 25.35 15.728 25.9833 15.1431L38.85 26.711Z" fill="url(#paint0_linear)"/>
<path d="M50 27.231C50 28.3683 49.3667 29.3756 48.3167 29.9442L44.65 31.9264L40.1 27.8321L38.85 26.711L43.6667 22.0156L48.3167 24.5177C49.3667 25.0863 50 26.0937 50 27.231Z" fill="#FFCE00"/>
<path d="M38.85 26.7107L25.9833 15.1427C26.15 14.9803 26.3667 14.8341 26.5833 14.7041C27.6333 14.0867 28.9 14.0704 29.9833 14.6553L43.6667 22.0153L38.85 26.7107Z" fill="#00F076"/>
<path d="M44.65 31.9263L29.9833 39.8061C29.4667 40.0986 28.8833 40.2286 28.3167 40.2286C27.7167 40.2286 27.1167 40.0823 26.5833 39.7574C26.35 39.6274 26.1333 39.465 25.95 39.2862L38.85 26.7109L40.1 27.832L44.65 31.9263Z" fill="#F63448"/>
</g>
<path fill-rule="evenodd" clip-rule="evenodd" d="M139.236 40.7288H141.536V25.1026H139.236V40.7288ZM159.957 30.7313L157.32 37.5063H157.241L154.504 30.7313H152.026L156.132 40.2001L153.79 45.4676H156.19L162.515 30.7313H159.957ZM146.91 38.9538C146.158 38.9538 145.106 38.5713 145.106 37.6263C145.106 36.4213 146.415 35.9576 147.546 35.9576C148.556 35.9576 149.033 36.1801 149.647 36.4801C149.468 37.9288 148.239 38.9538 146.91 38.9538ZM147.188 30.3888C145.523 30.3888 143.798 31.1338 143.084 32.7813L145.126 33.6463C145.562 32.7813 146.375 32.5001 147.228 32.5001C148.418 32.5001 149.627 33.2238 149.647 34.5101V34.6713C149.23 34.4301 148.337 34.0688 147.247 34.0688C145.046 34.0688 142.805 35.2951 142.805 37.5864C142.805 39.6776 144.61 41.0251 146.632 41.0251C148.178 41.0251 149.033 40.3214 149.567 39.4964H149.647V40.7026H151.868V34.7113C151.868 31.9376 149.824 30.3888 147.188 30.3888ZM132.971 32.6338H129.699V27.2776H132.971C134.691 27.2776 135.667 28.7201 135.667 29.9551C135.667 31.1663 134.691 32.6338 132.971 32.6338ZM132.912 25.1013H127.399V40.7288H129.699V34.8088H132.912C135.461 34.8088 137.968 32.9363 137.968 29.9551C137.968 26.9738 135.461 25.1013 132.912 25.1013ZM102.853 38.9563C101.264 38.9563 99.9334 37.6076 99.9334 35.7551C99.9334 33.8813 101.264 32.5126 102.853 32.5126C104.421 32.5126 105.653 33.8813 105.653 35.7551C105.653 37.6076 104.421 38.9563 102.853 38.9563ZM105.494 31.6063H105.415C104.898 30.9826 103.904 30.4176 102.654 30.4176C100.032 30.4176 97.6279 32.7538 97.6279 35.7551C97.6279 38.7351 100.032 41.0513 102.654 41.0513C103.904 41.0513 104.898 40.4876 105.415 39.8426H105.494V40.6076C105.494 42.6426 104.421 43.7288 102.694 43.7288C101.283 43.7288 100.409 42.7026 100.052 41.8363L98.0459 42.6826C98.6216 44.0913 100.15 45.8238 102.694 45.8238C105.395 45.8238 107.68 44.2126 107.68 40.2851V30.7401H105.494V31.6063ZM109.269 40.7288H111.572V25.1026H109.269V40.7288ZM114.968 35.5738C114.909 33.5188 116.538 32.4726 117.709 32.4726C118.624 32.4726 119.398 32.9363 119.657 33.6001L114.968 35.5738ZM122.119 33.8013C121.681 32.6138 120.351 30.4176 117.63 30.4176C114.929 30.4176 112.684 32.5726 112.684 35.7351C112.684 38.7151 114.909 41.0513 117.888 41.0513C120.291 41.0513 121.681 39.5613 122.258 38.6951L120.471 37.4864C119.874 38.3726 119.06 38.9563 117.888 38.9563C116.717 38.9563 115.882 38.4126 115.347 37.3451L122.357 34.4051L122.119 33.8013ZM66.2598 32.0501V34.3051H71.5822C71.4243 35.5738 71.0064 36.5001 70.3715 37.1438C69.596 37.9301 68.3841 38.7963 66.2598 38.7963C62.9816 38.7963 60.4197 36.1176 60.4197 32.7951C60.4197 29.4726 62.9816 26.7926 66.2598 26.7926C68.0278 26.7926 69.3186 27.4976 70.2716 28.4051L71.8411 26.8138C70.5095 25.5251 68.7428 24.5376 66.2598 24.5376C61.7697 24.5376 57.9958 28.2438 57.9958 32.7951C57.9958 37.3451 61.7697 41.0513 66.2598 41.0513C68.6824 41.0513 70.5095 40.2451 71.9397 38.7351C73.4093 37.2451 73.8667 35.1501 73.8667 33.4588C73.8667 32.9363 73.8272 32.4526 73.7471 32.0501H66.2598ZM79.9176 38.9563C78.3297 38.9563 76.9587 37.6276 76.9587 35.7351C76.9587 33.8213 78.3297 32.5126 79.9176 32.5126C81.5068 32.5126 82.8778 33.8213 82.8778 35.7351C82.8778 37.6276 81.5068 38.9563 79.9176 38.9563ZM79.9176 30.4176C77.0179 30.4176 74.6545 32.6538 74.6545 35.7351C74.6545 38.7963 77.0179 41.0513 79.9176 41.0513C82.8186 41.0513 85.182 38.7963 85.182 35.7351C85.182 32.6538 82.8186 30.4176 79.9176 30.4176ZM91.4006 38.9563C89.8115 38.9563 88.4405 37.6276 88.4405 35.7351C88.4405 33.8213 89.8115 32.5126 91.4006 32.5126C92.9898 32.5126 94.3596 33.8213 94.3596 35.7351C94.3596 37.6276 92.9898 38.9563 91.4006 38.9563ZM91.4007 30.4176C88.5009 30.4176 86.1375 32.6538 86.1375 35.7351C86.1375 38.7963 88.5009 41.0513 91.4007 41.0513C94.3004 41.0513 96.6638 38.7963 96.6638 35.7351C96.6638 32.6538 94.3004 30.4176 91.4007 30.4176Z" fill="white"/>
<defs>
<linearGradient id="paint0_linear" x1="25.7407" y1="39.3259" x2="29.8852" y2="17.4394" gradientUnits="userSpaceOnUse">
<stop stop-color="#00DFFF"/>
<stop offset="1" stop-color="#00BFF7"/>
</linearGradient>
<clipPath id="clip0">
<rect width="25" height="26" fill="white" transform="translate(25 14.2285)"/>
</clipPath>
</defs>
</svg>
